<svg id="Layer_1" data-name="Layer 1" xmlns="http://www.w3.org/2000/svg" xmlns:xlink="http://www.w3.org/1999/xlink" viewBox="0 0 145 145"><defs><style>.cls-1{fill:none;}.cls-2{fill:url(#Sfumatura_senza_nome_30);}.cls-3{fill:#333;}.cls-4{fill:#b3b3b3;}.cls-5{fill:#fff;}.cls-6{clip-path:url(#clip-path);}.cls-7{fill:#f2f2f2;}.cls-8{fill:#b92123;}.cls-9{fill:#ffda00;}.cls-10{fill:#0087cc;}</style><linearGradient id="Sfumatura_senza_nome_30" x1="12.25" y1="89.52" x2="133.75" y2="56.96" gradientUnits="userSpaceOnUse"><stop offset="0" stop-color="#aad965"/><stop offset="0.13" stop-color="#a3d969"/><stop offset="0.32" stop-color="#8fd774"/><stop offset="0.55" stop-color="#6fd585"/><stop offset="0.81" stop-color="#42d29d"/><stop offset="0.99" stop-color="#1dd0b1"/></linearGradient><clipPath id="clip-path"><path class="cls-1" d="M118.78,20.24l-59-15.81A10,10,0,0,0,50.12,7L6.93,50.21a10,10,0,0,0-2.59,9.66l15.81,59a10,10,0,0,0,7.07,7.07l59,15.81a10,10,0,0,0,9.66-2.59L139.07,96a10,10,0,0,0,2.59-9.66l-15.81-59A10,10,0,0,0,118.78,20.24Z"/></clipPath></defs><title>Tavola disegno 5_svg</title><path class="cls-2" d="M118.78,20.39l-59-15.81a10,10,0,0,0-9.66,2.59L6.93,50.36A10,10,0,0,0,4.34,60l15.81,59a10,10,0,0,0,7.07,7.07l59,15.81a10,10,0,0,0,9.66-2.59l43.19-43.19a10,10,0,0,0,2.59-9.66l-15.81-59A10,10,0,0,0,118.78,20.39Z"/><path class="cls-3" d="M21.63,22.66a9.3,9.3,0,0,1,3.94-1l83.93-9a8,8,0,0,1,8.86,7.31c.28,2.72.61,5.44.86,8.16a8.45,8.45,0,0,0-2.88-.14l-95,10.2a9,9,0,0,0-2.93.76c-.34-2.82-.62-5.65-.93-8.47A8,8,0,0,1,21.63,22.66Zm19.69,1.4a4,4,0,0,0-2.59,4.09,4,4,0,0,0,3.48,3.57,3.92,3.92,0,0,0,4.19-2.58,4.53,4.53,0,0,0,.07-2.58A4,4,0,0,0,43.89,24,4.33,4.33,0,0,0,41.32,24.06Zm50.49-5.43A4,4,0,0,0,89.18,22a4.81,4.81,0,0,0,.55,2.44,3.93,3.93,0,0,0,6.48.47,4.19,4.19,0,0,0,.85-3.13,4,4,0,0,0-2.66-3.12A4.32,4.32,0,0,0,91.81,18.63Z"/><path class="cls-4" d="M18.44,38.91a9,9,0,0,1,2.93-.76l95-10.2a8.45,8.45,0,0,1,2.88.14A8,8,0,0,1,125.15,34a8.47,8.47,0,0,0-4.09-4.6,8.14,8.14,0,0,0-4.5-.8Q68.92,33.72,21.29,38.82a8.13,8.13,0,0,0-6,3.53,13.12,13.12,0,0,0-1.35,2.92A8,8,0,0,1,18.44,38.91Z"/><path class="cls-5" d="M15.27,42.35a8.13,8.13,0,0,1,6-3.53q47.64-5.1,95.27-10.24a8.14,8.14,0,0,1,4.5.8,8.47,8.47,0,0,1,4.09,4.6,6.63,6.63,0,0,1,.26,2.17c-.34,13.1-1.1,26.24-1.41,39.35-7.18.76-91,9.91-101,11C19.94,74,17.34,61.37,14.27,48.89a9,9,0,0,1-.35-3.62A13.12,13.12,0,0,1,15.27,42.35Z"/><g class="cls-6"><path class="cls-7" d="M124,75.5c2.21,12.42,4.69,24.84,6.89,37.26a13.38,13.38,0,0,1,.33,4.32l0,0a6.73,6.73,0,0,0-.69,1.49,8,8,0,0,1-6.31,4.53q-44.76,4.77-89.52,9.61a10.75,10.75,0,0,1-2.83.1,8.15,8.15,0,0,1-5.37-3.26,7.89,7.89,0,0,0-.84-1.13l-.05-.05c-.7-1.82-.5-3.81-.64-5.71C24.47,110.59,23.46,98.62,23,86.5,32.94,85.41,116.52,76.29,124,75.5Z"/></g><rect class="cls-8" x="35.31" y="71.56" width="21.51" height="13.44" transform="translate(-8.56 5.71) rotate(-6.5)"/><rect class="cls-9" x="65.64" y="88.4" width="21.51" height="13.44" transform="translate(-10.27 9.25) rotate(-6.5)"/><rect class="cls-10" x="89.12" y="45.15" width="21.51" height="13.44" transform="translate(-5.23 11.63) rotate(-6.5)"/></svg>